<svg width="120" height="84" viewBox="0 0 120 84" fill="none" xmlns="http://www.w3.org/2000/svg">
<path d="M36.4282 83.721C40.2234 83.721 43.3 80.6323 43.3 76.8223C43.3 73.0122 40.2234 69.9236 36.4282 69.9236C32.633 69.9236 29.5563 73.0122 29.5563 76.8223C29.5563 80.6323 32.633 83.721 36.4282 83.721Z" fill="url(#paint0_linear_10_295)"/>
<path d="M36.4281 81.5945C39.0535 81.5945 41.1818 79.4579 41.1818 76.8223C41.1818 74.1867 39.0535 72.05 36.4281 72.05C33.8028 72.05 31.6745 74.1867 31.6745 76.8223C31.6745 79.4579 33.8028 81.5945 36.4281 81.5945Z" fill="#DDE6ED"/>
<path d="M102.61 83.721C106.405 83.721 109.482 80.6323 109.482 76.8223C109.482 73.0122 106.405 69.9236 102.61 69.9236C98.8145 69.9236 95.7379 73.0122 95.7379 76.8223C95.7379 80.6323 98.8145 83.721 102.61 83.721Z" fill="url(#paint1_linear_10_295)"/>
<path d="M102.61 81.5945C105.235 81.5945 107.363 79.4579 107.363 76.8223C107.363 74.1867 105.235 72.05 102.61 72.05C99.9843 72.05 97.856 74.1867 97.856 76.8223C97.856 79.4579 99.9843 81.5945 102.61 81.5945Z" fill="#DDE6ED"/>
<path d="M116.723 9.76403C114.629 9.31896 112.585 10.58 112.043 12.6323H14.8766C14.4579 12.6323 14.0392 12.7065 13.6698 12.8301L10.1476 6.07978C9.13778 4.12638 6.72401 3.35986 4.77822 4.39838C2.83242 5.41216 2.06889 7.83536 3.10336 9.78875L30.2459 61.8133H27.5859C25.3938 61.8133 23.5958 63.5937 23.5958 65.819C23.5958 68.0197 25.3691 69.8247 27.5859 69.8247H110.491C112.684 69.8247 114.482 68.0444 114.482 65.819C114.482 63.6184 112.708 61.8133 110.491 61.8133H109.531L119.752 14.5115C120.245 12.3603 118.866 10.2338 116.723 9.76403ZM104.556 47.2247C104.457 47.2247 104.334 47.2 104.235 47.2H31.6006L27.9307 40.1776H106.083L104.556 47.2247ZM110.294 20.6437L107.807 32.191H25.1721C24.7288 32.191 24.2854 32.2652 23.8667 32.4135L17.7338 20.6437H110.294ZM39.236 61.8381L35.7631 55.1866H102.831L101.403 61.8381H39.236Z" fill="#ABABC9"/>
<path opacity="0.39" d="M116.723 9.76403C114.629 9.31896 112.585 10.58 112.043 12.6323H14.8766C14.4579 12.6323 14.0392 12.7065 13.6698 12.8301L10.1476 6.07978C9.13778 4.12638 6.72401 3.35986 4.77822 4.39838C2.83242 5.41216 2.06889 7.83536 3.10336 9.78875L30.2459 61.8133H27.5859C25.3938 61.8133 23.5958 63.5937 23.5958 65.819C23.5958 68.0197 25.3691 69.8247 27.5859 69.8247H110.491C112.684 69.8247 114.482 68.0444 114.482 65.819C114.482 63.6184 112.708 61.8133 110.491 61.8133H109.531L119.752 14.5115C120.245 12.3603 118.866 10.2338 116.723 9.76403ZM104.556 47.2247C104.457 47.2247 104.334 47.2 104.235 47.2H31.6006L27.9307 40.1776H106.083L104.556 47.2247ZM110.294 20.6437L107.807 32.191H25.1721C24.7288 32.191 24.2854 32.2652 23.8667 32.4135L17.7338 20.6437H110.294ZM39.236 61.8381L35.7631 55.1866H102.831L101.403 61.8381H39.236Z" fill="url(#paint2_linear_10_295)"/>
<path d="M5.41863 10.9756C8.41128 10.9756 10.8373 8.54012 10.8373 5.53578C10.8373 2.53144 8.41128 0.0959473 5.41863 0.0959473C2.42599 0.0959473 -3.05176e-05 2.53144 -3.05176e-05 5.53578C-3.05176e-05 8.54012 2.42599 10.9756 5.41863 10.9756Z" fill="url(#paint3_linear_10_295)"/>
<path d="M5.39397 8.55243C7.10794 8.55243 8.49739 7.15757 8.49739 5.4369C8.49739 3.71623 7.10794 2.32135 5.39397 2.32135C3.68 2.32135 2.29056 3.71623 2.29056 5.4369C2.29056 7.15757 3.68 8.55243 5.39397 8.55243Z" fill="#DDE6ED"/>
<defs>
<linearGradient id="paint0_linear_10_295" x1="38.8323" y1="81.6416" x2="33.689" y2="71.3951" gradientUnits="userSpaceOnUse">
<stop stop-color="#2EFFAF"/>
<stop offset="1" stop-color="#00AAFF"/>
</linearGradient>
<linearGradient id="paint1_linear_10_295" x1="105.016" y1="81.6416" x2="99.8732" y2="71.3951" gradientUnits="userSpaceOnUse">
<stop stop-color="#2EFFAF"/>
<stop offset="1" stop-color="#00AAFF"/>
</linearGradient>
<linearGradient id="paint2_linear_10_295" x1="2.64225" y1="36.8899" x2="119.86" y2="36.8899" gradientUnits="userSpaceOnUse">
<stop stop-color="#BFD1FF" stop-opacity="0"/>
<stop offset="1" stop-color="#00FFE1"/>
</linearGradient>
<linearGradient id="paint3_linear_10_295" x1="-3.05176e-05" y1="5.52376" x2="10.8564" y2="5.52376" gradientUnits="userSpaceOnUse">
<stop stop-color="#3135C6"/>
<stop offset="1" stop-color="#00AAFF"/>
</linearGradient>
</defs>
</svg>
